<?xml version="1.0" standalone="no"?>
<!DOCTYPE svg PUBLIC "-//W3C//DTD SVG 20010904//EN"
 "http://www.w3.org/TR/2001/REC-SVG-20010904/DTD/svg10.dtd">
<svg version="1.0" xmlns="http://www.w3.org/2000/svg"
 width="300.000000pt" height="169.000000pt" viewBox="0 0 300.000000 169.000000"
 preserveAspectRatio="xMidYMid meet">
<metadata>
Created by potrace 1.10, written by Peter Selinger 2001-2011
</metadata>
<g transform="translate(0.000000,169.000000) scale(0.100000,-0.100000)"
fill="#000000" stroke="none">
<path d="M1485 1674 c-499 -30 -900 -124 -1150 -270 -93 -55 -202 -159 -233
-225 -28 -59 -29 -149 -3 -220 23 -59 115 -183 176 -237 167 -146 443 -403
508 -471 118 -126 105 -157 -62 -148 -166 8 -330 53 -345 94 -9 23 18 59 67
87 58 35 122 43 171 22 68 -28 95 -12 34 21 -49 25 -150 22 -213 -6 -103 -46
-141 -113 -91 -160 78 -74 430 -125 529 -77 101 49 57 109 -365 489 -296 266
-364 353 -375 476 -25 273 447 504 1172 575 554 54 956 3 1067 -135 24 -30 34
-36 45 -28 20 17 16 33 -14 64 -58 58 -198 106 -382 130 -108 14 -427 26 -536
19z"/>
<path d="M1022 943 l-37 -78 -45 -3 c-103 -6 -125 -29 -32 -34 31 -2 56 -7 55
-13 -1 -5 -28 -71 -58 -145 -66 -160 -77 -216 -46 -244 30 -28 118 -19 165 17
36 28 52 34 41 17 -10 -16 15 -40 42 -40 13 0 39 7 58 14 31 13 35 13 35 0 0
-30 27 -12 70 47 43 59 101 109 127 109 7 0 13 -12 13 -26 0 -16 5 -24 13 -22
17 6 36 48 30 64 -6 16 -51 18 -87 4 -20 -7 -27 -6 -34 7 -14 24 -38 9 -63
-39 -28 -56 -46 -76 -91 -99 -70 -36 -84 -20 -48 51 24 47 25 60 5 60 -9 0
-25 -15 -36 -34 -11 -19 -43 -50 -72 -70 -98 -67 -150 -57 -129 27 18 69 123
317 136 318 6 1 20 2 31 3 11 1 41 3 68 4 75 3 55 22 -23 22 -38 0 -70 2 -70
5 0 3 11 33 25 67 29 71 31 88 10 88 -10 0 -30 -31 -53 -77z"/>
<path d="M1580 814 c-123 -290 -136 -342 -102 -384 15 -19 25 -22 54 -16 20 4
52 18 72 31 40 27 51 31 41 15 -11 -17 15 -40 44 -40 15 0 43 9 64 19 28 14
37 16 37 6 0 -29 20 -23 81 26 115 93 130 98 104 35 -21 -49 -12 -76 23 -76
31 0 106 32 117 50 5 8 11 4 19 -12 9 -18 19 -23 46 -22 19 1 45 5 58 9 18 6
21 4 16 -8 -3 -9 -52 -40 -107 -70 -230 -121 -367 -221 -367 -267 0 -51 79
-90 180 -90 142 0 197 55 294 295 l41 100 107 55 c59 30 113 61 120 68 24 24
-20 13 -108 -28 -48 -22 -89 -38 -92 -35 -3 2 9 36 27 75 17 39 31 76 31 83 0
20 -126 15 -167 -6 -35 -18 -73 -62 -73 -84 0 -17 -87 -73 -113 -73 -14 0 -17
4 -12 18 35 87 31 107 -20 99 -19 -3 -49 -16 -66 -27 -34 -25 -46 -21 -30 9 7
11 7 22 2 25 -16 11 -39 -5 -51 -35 -18 -44 -137 -116 -157 -95 -4 3 3 30 15
59 26 62 27 67 7 67 -8 0 -26 -17 -39 -39 -53 -84 -166 -133 -166 -72 0 28 60
195 129 361 34 80 61 151 61 158 0 6 -8 12 -18 12 -14 0 -37 -44 -102 -196z
m718 -227 c3 -20 -7 -37 -42 -72 -47 -46 -72 -56 -82 -30 -9 23 29 87 66 113
40 27 54 24 58 -11z m-73 -229 c-4 -13 -29 -69 -55 -124 -53 -109 -105 -167
-162 -179 -50 -11 -116 4 -151 34 -30 28 -31 29 -14 54 21 32 95 83 247 170
126 73 145 79 135 45z"/>
<path d="M2634 797 c-3 -9 -1 -25 6 -36 7 -15 8 -27 0 -40 -13 -26 -13 -31 5
-31 36 0 48 111 12 118 -9 2 -20 -3 -23 -11z"/>
<path d="M1171 691 c-25 -35 -28 -66 -5 -57 9 3 17 6 20 6 9 0 34 61 29 70
-10 17 -23 11 -44 -19z"/>
<path d="M1750 688 c-24 -40 -26 -62 -4 -54 9 3 17 6 20 6 9 0 34 61 29 70
-11 18 -25 11 -45 -22z"/>
<path d="M2770 653 c-49 -18 -64 -72 -35 -123 8 -14 14 -28 15 -32 0 -4 -27
-26 -60 -48 -63 -43 -84 -69 -74 -94 19 -49 192 -21 209 34 4 11 1 36 -5 56
-7 19 -10 38 -7 40 3 3 31 16 63 29 32 13 60 29 62 34 5 16 -11 14 -83 -14
l-65 -24 -15 36 c-19 45 -19 57 0 73 13 10 19 9 35 -5 16 -14 23 -16 32 -7 22
22 -36 58 -72 45z m4 -225 c8 -32 -26 -58 -75 -58 -21 0 -39 4 -39 9 0 12 80
70 96 71 7 0 14 -10 18 -22z"/>
</g>
</svg>
